<svg xmlns="http://www.w3.org/2000/svg" version="1.1" xmlns:xlink="http://www.w3.org/1999/xlink" xmlns:svgjs="http://svgjs.com/svgjs" width="1440" height="560" preserveAspectRatio="none" viewBox="0 0 1440 560">
    <g mask="url(&quot;#SvgjsMask1001&quot;)" fill="none">
        <rect width="1440" height="560" x="0" y="0" fill="rgba(137, 207, 204, 1)"></rect>
        <path d="M0,400.291C85.941,408.004,177.596,435.473,253.549,394.53C330.799,352.888,387.336,270.113,402.002,183.588C415.776,102.327,338.571,34.572,328.427,-47.221C317.963,-131.595,381.794,-221.36,342.435,-296.721C302.314,-373.541,213.636,-428.581,127.071,-432.763C42.599,-436.844,-18.142,-356.537,-93.307,-317.774C-151.77,-287.624,-213.223,-269.898,-265.685,-230.217C-329.758,-181.754,-411.741,-139.918,-431.425,-62.03C-451.294,16.591,-402.213,94.584,-366.121,167.202C-331.054,237.757,-292.359,309.188,-225.896,351.501C-159.57,393.727,-78.312,393.263,0,400.291" fill="#58bbb7"></path>
        <path d="M1440 970.246C1536.052 980.2090000000001 1631.382 1031.763 1722.339 999.328 1820.061 964.48 1890.868 879.219 1944.431 790.366 2002.458 694.107 2054.976 585.131 2039.103 473.86199999999997 2023.225 362.55600000000004 1950.502 262.626 1859.689 196.337 1777.038 136.00599999999997 1667.833 143.675 1566.5720000000001 128.937 1479.99 116.33600000000001 1393.507 91.106 1309.716 116.29199999999997 1226.1970000000001 141.39600000000002 1166.7269999999999 208.40300000000002 1103.248 268.202 1032.682 334.677 947.962 392.69 918.326 484.995 886.517 584.069 882.218 701.034 935.606 790.3489999999999 987.9639999999999 877.9390000000001 1096.833 910.1379999999999 1192.949 944.419 1272.549 972.809 1355.94 961.527 1440 970.246" fill="#bae3e1"></path>
    </g>
    <defs>
        <mask id="SvgjsMask1001">
            <rect width="1440" height="560" fill="#ffffff"></rect>
        </mask>
    </defs>
</svg>
